<?xml version="1.0" encoding="UTF-8"?>
<!DOCTYPE svg PUBLIC "-//W3C//DTD SVG 1.1//EN" "http://www.w3.org/Graphics/SVG/1.1/DTD/svg11.dtd">
<!-- Creator: CorelDRAW X7 -->
<svg xmlns="http://www.w3.org/2000/svg" xml:space="preserve" width="162.56mm" height="91.44mm" version="1.1" style="shape-rendering:geometricPrecision; text-rendering:geometricPrecision; image-rendering:optimizeQuality; fill-rule:evenodd; clip-rule:evenodd"
viewBox="0 0 16256 9144"
 xmlns:xlink="http://www.w3.org/1999/xlink">
 <defs>
  <style type="text/css">
   <![CDATA[
    .fil0 {fill:url(#id0)}
   ]]>
  </style>
  <linearGradient id="id0" gradientUnits="userSpaceOnUse" x1="6476.69" y1="1711.83" x2="9779.31" y2="7432.17">
   <stop offset="0" style="stop-opacity:1; stop-color:#2C90CE"/>
   <stop offset="1" style="stop-opacity:1; stop-color:#176EB7"/>
  </linearGradient>
 </defs>
 <g id="Camada_x0020_1">
  <metadata id="CorelCorpID_0Corel-Layer"/>
  <path class="fil0" d="M2927 3927c107,33 121,139 83,201 -50,82 -139,69 -253,69 -108,0 -576,-6 -643,3 -1,268 -7,440 76,682 69,203 173,358 283,479 209,230 629,426 1095,414 15,-12 10,14 15,-33l-1 -306c0,-208 20,-210 -43,-213 -27,-2 -55,-4 -82,-4 -154,6 -358,-67 -462,-137 -96,-65 -253,-234 -263,-335 202,-5 315,9 484,-82 126,-68 213,-156 282,-283 170,-314 46,-661 -142,-828 -261,-233 -530,-181 -940,-181 -368,0 -748,-9 -1114,1 -18,15 -15,-21 -15,25l1 1666c49,15 488,12 557,4l0 -1144 1082 2zm10929 1773l152 0 0 -762c0,-361 147,-553 585,-553l376 0 0 -136 -366 0c-374,0 -520,131 -592,293l-3 0 0 -293 -152 0 0 1451zm-1315 23c756,0 911,-139 911,-747 0,-611 -155,-750 -911,-750 -756,0 -911,139 -911,750 0,608 155,747 911,747zm-756 -747c0,-515 91,-611 756,-611 665,0 756,96 756,611 0,512 -91,608 -756,608 -665,0 -756,-96 -756,-608zm-821 724l515 0 0 -136 -481 0c-226,0 -283,-34 -283,-259l0 -920 740 0 0 -136 -740 0 0 -371 -154 0 0 371 -315 0 0 136 315 0 0 952c0,286 112,363 403,363zm-1965 23c405,0 600,-67 678,-222l7 0 0 199 309 0 0 -915c0,-440 -130,-579 -835,-579 -646,0 -838,115 -838,461l0 27 318 0 0 -13c0,-176 98,-221 523,-221 465,0 523,66 523,309l0 37 -694 0c-533,0 -733,125 -730,464 3,335 200,453 739,453zm-425 -462c-3,-167 107,-201 474,-201l636 0 0 69c0,274 -139,337 -639,337 -364,0 -468,-42 -471,-205zm-1707 462c492,0 628,-77 730,-250l2 0 0 227 318 0 0 -2077 -318 0 0 832 -2 0c-102,-172 -238,-249 -730,-249 -662,0 -822,165 -822,757 0,593 160,760 822,760zm-502 -760c0,-411 88,-486 598,-486 471,0 639,53 639,409l0 154c0,358 -168,412 -639,412 -510,0 -598,-78 -598,-489zm-1561 760c678,0 932,-117 932,-472l0 -40 -511 0 0 5c0,107 -29,161 -418,161 -435,0 -467,-56 -467,-263l0 -35 1396 0 0 -171c0,-547 -198,-728 -945,-728 -780,0 -958,181 -958,771 0,591 178,772 971,772zm-464 -948c0,-193 59,-249 446,-249 384,0 442,56 442,249l-888 0z"/>
 </g>
</svg>
