<?xml version="1.0" encoding="UTF-8"?>
<!DOCTYPE svg PUBLIC "-//W3C//DTD SVG 1.1//EN" "http://www.w3.org/Graphics/SVG/1.1/DTD/svg11.dtd">
<!-- Creator: CorelDRAW X7 -->
<svg xmlns="http://www.w3.org/2000/svg" xml:space="preserve" width="162.56mm" height="91.44mm" version="1.1" style="shape-rendering:geometricPrecision; text-rendering:geometricPrecision; image-rendering:optimizeQuality; fill-rule:evenodd; clip-rule:evenodd"
viewBox="0 0 16256 9144"
 xmlns:xlink="http://www.w3.org/1999/xlink">
 <defs>
  <style type="text/css">
   <![CDATA[
    .fil1 {fill:#2C90CE;fill-rule:nonzero}
    .fil0 {fill:url(#id0);fill-rule:nonzero}
   ]]>
  </style>
  <linearGradient id="id0" gradientUnits="userSpaceOnUse" x1="12719.2" y1="7378.09" x2="2998.62" y2="1765.93">
   <stop offset="0" style="stop-opacity:1; stop-color:#2C90CE"/>
   <stop offset="1" style="stop-opacity:1; stop-color:#F2D9BF"/>
  </linearGradient>
 </defs>
 <g id="Camada_x0020_1">
  <metadata id="CorelCorpID_0Corel-Layer"/>
  <path class="fil0" d="M1965 6596l659 0 1474 -3616 10 0 1474 3616 648 0 1669 -4093 -511 0 -1475 3645 -10 0 -1484 -3645 -622 0 -1490 3645 -4 0 -1485 -3645 -522 0 1669 4093zm7723 45c1369,0 1725,-247 1725,-984l0 -32 -461 0 0 5c0,474 -136,627 -1264,627 -1138,0 -1307,-163 -1312,-963l3037 0 0 -316c0,-1013 -372,-1303 -1741,-1303 -1426,0 -1756,295 -1756,1477 0,1189 319,1489 1772,1489zm-1312 -1726c21,-709 242,-861 1291,-861 1064,0 1285,156 1285,813l0 48 -2576 0zm3298 1682l579 0 1289 -1226 1290 1226 589 0 -1552 -1489 1442 -1388 -579 0 -1178 1125 -1179 -1125 -596 0 1443 1388 -1548 1489z"/>
  <polygon class="fil1" points="14425,5344 15477,6343 15960,6343 14688,5124 15869,3987 15395,3987 14430,4909 14425,4905 "/>
 </g>
</svg>
