<?xml version="1.0" encoding="UTF-8"?>
<!DOCTYPE svg PUBLIC "-//W3C//DTD SVG 1.1//EN" "http://www.w3.org/Graphics/SVG/1.1/DTD/svg11.dtd">
<!-- Creator: CorelDRAW X7 -->
<svg xmlns="http://www.w3.org/2000/svg" xml:space="preserve" width="162.56mm" height="91.44mm" version="1.1" style="shape-rendering:geometricPrecision; text-rendering:geometricPrecision; image-rendering:optimizeQuality; fill-rule:evenodd; clip-rule:evenodd"
viewBox="0 0 16256 9144"
 xmlns:xlink="http://www.w3.org/1999/xlink">
 <defs>
  <style type="text/css">
   <![CDATA[
    .fil1 {fill:#2C90CE;fill-rule:nonzero}
    .fil0 {fill:url(#id0);fill-rule:nonzero}
   ]]>
  </style>
  <linearGradient id="id0" gradientUnits="userSpaceOnUse" x1="11998.3" y1="6806.52" x2="4257.71" y2="2337.48">
   <stop offset="0" style="stop-opacity:1; stop-color:#2C90CE"/>
   <stop offset="1" style="stop-opacity:1; stop-color:#F2D9BF"/>
  </linearGradient>
 </defs>
 <g id="Camada_x0020_1">
  <metadata id="CorelCorpID_0Corel-Layer"/>
  <path class="fil0" d="M1744 5558l238 0 0 -910 1816 0 0 910 235 0 0 -1972 -235 0 0 847 -1816 0 0 -847 -238 0 0 1972zm3449 19c398,0 570,-81 659,-250l2 0 0 231 225 0 0 -1386 -225 0 0 755c0,387 -215,453 -611,453 -448,0 -550,-102 -550,-438l0 -770 -221 0 0 798c0,445 181,607 721,607zm2248 3c618,0 780,-154 780,-716 0,-562 -162,-714 -780,-714 -490,0 -627,76 -724,245l-2 0 0 -809 -222 0 0 1972 222 0 0 -223 2 0c97,169 234,245 724,245zm-726 -625l0 -180c0,-380 205,-430 668,-430 512,0 611,86 611,519 0,435 -99,521 -611,521 -463,0 -668,-50 -668,-430zm1883 603l395 0 0 -677 966 0c420,0 471,104 471,388l0 289 394 0 0 -358c0,-339 -76,-435 -343,-478l0 -10c260,-64 346,-231 346,-527 0,-447 -192,-599 -792,-599l-1437 0 0 1972zm395 -1022l0 -607 1003 0c333,0 437,53 437,306 0,251 -109,301 -426,301l-1014 0zm3459 1057c1075,0 1280,-193 1280,-1021 0,-828 -205,-1021 -1280,-1021 -1073,0 -1280,193 -1280,1021 0,828 207,1021 1280,1021zm-883 -1024c0,-595 94,-671 883,-671 787,0 880,76 880,671 0,601 -93,677 -880,677 -789,0 -883,-76 -883,-677zm2546 989l397 0 0 -1972 -397 0 0 1972z"/>
  <path class="fil1" d="M14852 5478c113,0 139,-29 155,-69l1 0 0 64 61 0 0 -284c0,-112 -48,-149 -187,-149 -124,0 -183,28 -183,130l0 8 61 0 0 -3c0,-69 38,-82 123,-82 96,0 125,20 125,99l0 28 -138 0c-130,0 -186,33 -186,128 0,95 54,130 168,130zm-107 -131c0,-56 32,-73 129,-73l135 0 0 40c0,81 -35,110 -142,110 -85,0 -122,-15 -122,-77zm439 126l61 0 0 -428 -61 0 0 428zm0 -512l61 0 0 -97 -61 0 0 97z"/>
 </g>
</svg>
