<?xml version="1.0" encoding="UTF-8"?>
<svg xmlns="http://www.w3.org/2000/svg" xmlns:xlink="http://www.w3.org/1999/xlink" width="810" height="809.999993" viewBox="0 0 810 809.999993">
  <defs>
    <clipPath id="clip1">
      <path d="M 535 92.296875 L 739 92.296875 L 739 231 L 535 231 Z M 535 92.296875 "></path>
    </clipPath>
  </defs>
  <g id="surface1" fill="#4D4D4D">
    <path style="stroke: none; fill-rule: nonzero; fill-opacity: 1;" d="M 677.210938 288.695312 C 670.359375 288.695312 664.804688 283.140625 664.804688 276.292969 C 664.804688 269.441406 670.359375 263.886719 677.210938 263.886719 C 684.058594 263.886719 689.613281 269.441406 689.613281 276.292969 C 689.613281 283.140625 684.058594 288.695312 677.210938 288.695312 Z M 691.382812 229.554688 C 651.78125 211.535156 644.546875 206.175781 621.0625 200.035156 C 597.566406 193.902344 579.300781 205.625 577.621094 258.179688 C 576.328125 298.46875 571.242188 576.839844 568.941406 704.570312 C 568.746094 715.183594 583.703125 717.613281 586.875 707.492188 C 623.777344 589.710938 702.085938 339.796875 710.75 312.066406 C 722.121094 275.636719 730.996094 247.582031 691.382812 229.554688 " fill="#FFF159"></path>
    <path style="stroke: none; fill-rule: nonzero; fill-opacity: 1;" d="M 735.894531 319.433594 C 730.164062 320.898438 724.890625 315.847656 726.160156 310.0625 C 727.308594 304.847656 728.6875 298.636719 729.925781 293.175781 C 732.71875 280.902344 741.042969 275.824219 761.15625 280.6875 C 781.269531 285.542969 785.707031 286.269531 793.628906 289.429688 C 801.558594 292.589844 790.015625 298.484375 762.550781 310.113281 C 750.898438 315.046875 742.125 317.847656 735.894531 319.433594 " fill="#DE1E25"></path>
    <path style="stroke: none; fill-rule: nonzero; fill-opacity: 1;" d="M 717 337.945312 L 702.707031 391.304688 C 701.582031 395.511719 704.75 399.652344 709.113281 399.652344 L 740.605469 399.652344 C 745.105469 399.652344 748.300781 395.265625 746.917969 390.980469 L 729.710938 337.621094 C 727.683594 331.335938 718.703125 331.558594 717 337.945312 " fill="#DE1E25"></path>
    <g clip-path="url(#clip1)" clip-rule="nonzero" fill="#4D4D4D">
      <path style="stroke: none; fill-rule: nonzero; fill-opacity: 1;" d="M 724.8125 229.171875 L 540.335938 135.902344 C 532.8125 132.101562 534.074219 120.992188 542.261719 118.972656 L 647 93.117188 C 650.714844 92.195312 654.601562 93.703125 656.730469 96.882812 L 736.457031 216.015625 C 741.65625 223.777344 733.144531 233.386719 724.8125 229.171875 " fill="#DE1E25"></path>
    </g>
    <path style="stroke: none; fill-rule: nonzero; fill-opacity: 1;" d="M 554.195312 583.382812 L 556.1875 379.511719 C 556.25 373.695312 551.121094 369.179688 545.351562 369.960938 L 425.789062 386.363281 C 418.921875 387.300781 415.320312 395.019531 419 400.886719 L 536.570312 588.355469 C 541.636719 596.433594 554.101562 592.914062 554.195312 583.382812 " fill="#545454"></path>
    <path style="stroke: none; fill-rule: nonzero; fill-opacity: 1;" d="M 502.519531 573.78125 L 270.429688 200.664062 C 261.628906 186.515625 243.390625 181.566406 228.636719 189.324219 L 75.472656 269.945312 C 64.664062 275.636719 56.671875 285.527344 53.382812 297.300781 L 12.425781 443.851562 C 8.265625 458.726562 14.339844 474.554688 27.375 482.835938 L 172.085938 574.769531 C 180.9375 580.398438 191.894531 571.597656 188.316406 561.734375 L 162.289062 490.070312 C 160.382812 484.820312 162.707031 478.984375 167.691406 476.480469 L 242.851562 438.765625 C 246.253906 437.0625 250.28125 437.230469 253.519531 439.214844 L 491.546875 584.839844 C 498.746094 589.242188 506.984375 580.953125 502.519531 573.78125 " fill="#2D3277"></path>
  </g>
</svg>
