<?xml version="1.0" encoding="UTF-8"?>
<!DOCTYPE svg PUBLIC "-//W3C//DTD SVG 1.1//EN" "http://www.w3.org/Graphics/SVG/1.1/DTD/svg11.dtd">
<!-- Creator: CorelDRAW X7 -->
<svg xmlns="http://www.w3.org/2000/svg" xml:space="preserve" width="84.6666mm" height="84.6666mm" version="1.1" style="shape-rendering:geometricPrecision; text-rendering:geometricPrecision; image-rendering:optimizeQuality; fill-rule:evenodd; clip-rule:evenodd"
viewBox="0 0 8467 8467"
 xmlns:xlink="http://www.w3.org/1999/xlink">
 <defs>
  <style type="text/css">
   <![CDATA[
    .fil0 {fill:url(#id0)}
   ]]>
  </style>
  <linearGradient id="id0" gradientUnits="userSpaceOnUse" x1="7754.02" y1="6266" x2="712.64" y2="2200.66">
   <stop offset="0" style="stop-opacity:1; stop-color:#2C90CE"/>
   <stop offset="1" style="stop-opacity:1; stop-color:#F2D9BF"/>
  </linearGradient>
 </defs>
 <g id="Camada_x0020_1">
  <metadata id="CorelCorpID_0Corel-Layer"/>
  <path class="fil0" d="M4233 212c2221,0 4022,1800 4022,4021 0,2221 -1801,4022 -4022,4022 -2221,0 -4021,-1801 -4021,-4022 0,-2221 1800,-4021 4021,-4021zm-2653 5775l706 0 1571 -1494 1572 1494 719 0 -1893 -1815 1757 -1692 -705 0 -1436 1372 -1437 -1372 -726 0 1758 1692 -1886 1815zm3437 -1527l1281 1218 589 0 -1550 -1486 1439 -1386 -578 0 -1176 1124 -5 -6 0 536z"/>
 </g>
</svg>
